<svg xmlns="http://www.w3.org/2000/svg" width="32" height="36.215" viewBox="0 0 32 36.215">
  <path id="Path_2" data-name="Path 2" d="M61.637,22.363v-13l-25.6-4.622v-1.6A3.152,3.152,0,0,0,32.889,0H29.637V2.133h3.252A1.016,1.016,0,0,1,33.9,3.148v19.7a4.129,4.129,0,0,0,4.124,4.124h.854V29.4A3.555,3.555,0,1,0,41,33.015h.018V26.971H59.5V29.4a3.555,3.555,0,1,0,2.115,3.613h.018V24.837H38.028a1.993,1.993,0,0,1-1.991-1.991v-.839ZM37.459,34.082a1.422,1.422,0,1,1,1.422-1.422A1.424,1.424,0,0,1,37.459,34.082Zm20.622,0A1.422,1.422,0,1,1,59.5,32.66,1.424,1.424,0,0,1,58.081,34.082ZM46.7,20.022l-4.267-.059V8.069l4.267.77Zm2.133-10.8,3.911.706V20.106l-3.911-.054ZM40.3,19.933l-4.267-.059V6.914l4.267.77Zm19.2.267-4.622-.064v-9.82l4.622.835Z" transform="translate(-29.637 0)" fill="#fff"/>
</svg>
