<?xml version="1.0" encoding="utf-8"?>
<!-- Generator: Adobe Illustrator 25.0.0, SVG Export Plug-In . SVG Version: 6.00 Build 0)  -->
<svg version="1.1" id="Vrstva_1" xmlns="http://www.w3.org/2000/svg" xmlns:xlink="http://www.w3.org/1999/xlink" x="0px" y="0px"
	 viewBox="0 0 769.26 726.53" style="enable-background:new 0 0 769.26 726.53;" xml:space="preserve">
<style type="text/css">
	.st0{fill:#7733FF;}
</style>
<path class="st0" d="M128.21,641.06c11.91-0.04,23.57-3.43,33.65-9.78l52.95,42.33c4.68,26.77,25.76,47.65,52.57,52.08
	s53.49-8.58,66.52-32.42c13.03-23.84,9.57-53.32-8.63-73.5l70.94-107.9c30.48,5.55,60.37-12.29,69.94-41.75h114.72
	c8.76,24.88,31.89,41.83,58.25,42.7c26.36,0.87,50.55-14.52,60.93-38.77c10.38-24.25,4.83-52.38-14-70.85l34.3-84.69
	c29.36-7.1,49.74-33.8,48.86-63.99c-0.88-30.2-22.79-55.65-52.52-61.03l-41.49-55.25c16.25-28.12,8.78-63.96-17.35-83.25
	c-26.13-19.29-62.58-15.87-84.66,7.95L488.55,46c-7.92-27.38-33.07-46.18-61.58-46s-53.43,19.27-61.02,46.75L302.6,62.59
	c-18.05-18.96-45.84-25-70.14-15.25c-24.3,9.75-40.2,33.32-40.14,59.5c0.06,7.58,1.48,15.09,4.19,22.17l-35.8,29.72
	c-27.54-16.59-63.12-10.12-83.04,15.11c-19.93,25.23-17.98,61.34,4.54,84.29l-32.1,64.04c-27.07,6.01-47.19,28.78-49.81,56.39
	c-2.62,27.61,12.85,53.76,38.31,64.75c25.46,11,55.1,4.33,73.4-16.5l39.63,15.85c1.29,5.11,3.22,10.03,5.72,14.66l-40.92,56.72
	c-32.55,6.06-55.11,35.92-52.05,68.88C67.43,615.88,95.11,641.08,128.21,641.06z M85.47,384.63c-0.03,2.64-0.56,5.24-1.56,7.68
	l-0.14,0.21c-0.08,0.2-0.04,0.4-0.11,0.59c-4.24,9.81-15.08,14.97-25.37,12.09c-10.29-2.88-16.87-12.92-15.41-23.51
	c1.46-10.58,10.52-18.46,21.21-18.44C75.9,363.27,85.46,372.83,85.47,384.63z M136.67,233.26c-0.19,0.07-0.39,0.03-0.58,0.11
	l-0.18,0.12c-2.45,1-5.06,1.52-7.71,1.56c-11.8,0-21.37-9.57-21.37-21.37c0-11.8,9.57-21.37,21.37-21.37
	c10.13-0.01,18.87,7.11,20.92,17.03C151.18,219.26,145.98,229.25,136.67,233.26z M174.67,257.59l84.66,16.93
	c3.51,11.84,10.37,22.4,19.76,30.41l-69.22,55.38l-39.49-98.73l0,0C171.86,260.28,173.33,259.01,174.67,257.59z M205.21,407.79
	c0.19-0.07,0.4-0.04,0.59-0.12l0.18-0.12c2.45-1,5.06-1.52,7.71-1.56c11.8,0.01,21.35,9.57,21.37,21.37
	c0.01,10.68-7.87,19.71-18.44,21.17c-10.57,1.46-20.6-5.12-23.48-15.4C190.26,422.86,195.41,412.04,205.21,407.79z M277.79,106.84
	c0,11.8-9.57,21.37-21.37,21.37c-11.8,0-21.37-9.57-21.37-21.37s9.57-21.37,21.37-21.37C268.22,85.48,277.78,95.04,277.79,106.84z
	 M388.92,115.07l-78.24,78.24c-21.85,3.37-40.43,17.75-49.15,38.07l-69.59-13.92c0.07-1.27,0.38-2.48,0.38-3.78
	c-0.06-7.58-1.48-15.09-4.19-22.17l35.8-29.72c9.8,5.93,21.03,9.09,32.49,9.16c35.39-0.04,64.07-28.72,64.11-64.11
	c0-1.57-0.35-3.03-0.46-4.57l48.81-12.2C373.33,99.96,380.23,108.56,388.92,115.07z M320.52,235.05c11.8,0,21.37,9.57,21.37,21.37
	c-0.01,11.8-9.57,21.36-21.37,21.37c-11.8,0-21.37-9.57-21.37-21.37C299.16,244.62,308.72,235.05,320.52,235.05z M448.73,64.1
	c0,11.8-9.57,21.37-21.37,21.37S406,75.9,406,64.1c0-11.8,9.57-21.37,21.37-21.37C439.16,42.75,448.72,52.31,448.73,64.1z
	 M459.16,201.37c-12.95,7.61-22.81,19.53-27.86,33.68h-50.61c-4.19-11.77-11.74-22.06-21.72-29.6l64.16-64.15L459.16,201.37z
	 M555.58,106.84c0.04,12.02,3.48,23.79,9.94,33.94l-67.05,43.03l-38.79-64.65c11.87-6.89,21.23-17.41,26.69-30.01l69.59,13.92
	C555.88,104.34,555.58,105.55,555.58,106.84z M491.47,235.05c11.8,0,21.37,9.57,21.37,21.37c-0.01,11.8-9.57,21.36-21.37,21.37
	c-11.8,0-21.37-9.57-21.37-21.37C470.1,244.62,479.67,235.05,491.47,235.05z M641.05,106.84c0,11.8-9.57,21.37-21.37,21.37
	c-11.8,0-21.37-9.57-21.37-21.37s9.57-21.37,21.37-21.37C631.48,85.48,641.04,95.04,641.05,106.84z M670.24,202.78
	c-11.72,7.71-20.59,19.04-25.25,32.27h-93.35c-3.25-9.28-8.59-17.68-15.61-24.56L602,168.15c13.43,4.25,27.92,3.63,40.94-1.74
	L670.24,202.78z M683.79,256.42c0-11.8,9.57-21.37,21.37-21.37c11.8,0.01,21.36,9.57,21.37,21.37c0,11.8-9.57,21.37-21.37,21.37
	S683.79,268.22,683.79,256.42z M619.68,448.73c0-11.8,9.57-21.37,21.37-21.37c11.8,0,21.37,9.57,21.37,21.37
	c0,11.8-9.57,21.37-21.37,21.37C629.25,470.09,619.69,460.53,619.68,448.73z M532.34,305.39c8.78-7.31,15.45-16.84,19.3-27.61h93.35
	c5.51,15.44,16.73,28.17,31.36,35.58l-29.12,71.89c-2.06-0.2-4.06-0.63-6.18-0.63c-4.08,0.02-8.15,0.43-12.15,1.23L532.34,305.39z
	 M449.96,402.31l35.74-80.15l104.94,87.45c-4.18,5.36-7.47,11.35-9.75,17.75H466.16C462.81,417.85,457.26,409.27,449.96,402.31z
	 M447.51,302.85l-36.68,82.27c-1.63-0.12-3.18-0.49-4.84-0.49c-2.93,0.09-5.85,0.39-8.74,0.88l-44.43-74.04
	c12.95-7.61,22.81-19.53,27.86-33.68h50.62C434.66,287.3,440.21,295.89,447.51,302.85z M384.63,448.73
	c0-11.8,9.57-21.37,21.37-21.37c11.8,0,21.37,9.57,21.37,21.37c0,11.8-9.57,21.37-21.37,21.37
	C394.2,470.09,384.64,460.53,384.63,448.73z M359.23,405.2c-5.12,5.41-9.26,11.67-12.23,18.5l-72.13-14.43
	c-3.51-11.83-10.37-22.4-19.76-30.41l59.68-47.74L359.23,405.2z M256.42,662.42c0-11.8,9.57-21.37,21.37-21.37
	s21.37,9.57,21.37,21.37s-9.57,21.37-21.37,21.37C265.99,683.78,256.43,674.21,256.42,662.42z M162.61,523.03l26.36-36.54
	c32.53,13.64,69.96-1.6,83.71-34.08l72.13,14.43c2.68,9.1,7.35,17.5,13.69,24.56l-70.94,107.9c-24.61-4.49-49.49,6.34-62.98,27.4
	l-36.07-28.83c2.44-6.71,3.72-13.79,3.8-20.92C192.28,555.08,181.07,534.75,162.61,523.03z M156.68,398.65l-28.73-11.49
	c0.03-0.86,0.26-1.66,0.26-2.53c-0.08-23.41-12.96-44.89-33.56-56.01l25.87-51.61c2.54,0.42,5.11,0.68,7.69,0.78
	c0.86,0,1.67-0.22,2.52-0.26l40.77,101.94C165.39,384.86,160.36,391.37,156.68,398.65z M106.84,576.95
	c0-11.8,9.57-21.37,21.37-21.37c11.8,0.01,21.36,9.57,21.37,21.37c0,11.8-9.57,21.37-21.37,21.37S106.84,588.75,106.84,576.95z"/>
</svg>
